<svg xmlns="http://www.w3.org/2000/svg" viewBox="0 0 444.237 444.237">
  <path d="M376.471 439.859H45.176C20.262 439.859 0 419.597 0 394.682V93.506C0 68.591 20.262 48.33 45.176 48.33H376.47c24.915 0 45.176 20.262 45.176 45.176v301.176c.001 24.915-20.261 45.177-45.175 45.177zM60.235 379.623h301.176V108.565H60.235v271.058z" fill="transparent"/>
  <path d="M218.353 349.506a37.665 37.665 0 01-28.589-13.146L99.411 230.948c-13.53-15.789-11.701-39.552 4.088-53.082 15.782-13.545 39.544-11.716 53.09 4.081l59.068 68.909L402.342 25.741c28.898-40.478 59.144-18.063 30.118 22.588l-183.477 285.41a37.661 37.661 0 01-30.63 15.767z" fill="#00a344"/>
</svg>