<?xml version="1.0" encoding="iso-8859-1"?>
<!-- Generator: Adobe Illustrator 19.0.0, SVG Export Plug-In . SVG Version: 6.00 Build 0)  -->
<svg version="1.1" id="Layer_1" xmlns="http://www.w3.org/2000/svg" xmlns:xlink="http://www.w3.org/1999/xlink" x="0px" y="0px"
	 viewBox="0 0 444.237 444.237" style="enable-background:new 0 0 444.237 444.237;" xml:space="preserve">
<path style="fill:transparent;" d="M376.471,439.859H45.176C20.262,439.859,0,419.597,0,394.682V93.506
	c0-24.915,20.262-45.176,45.176-45.176h331.294c24.915,0,45.176,20.262,45.176,45.176v301.176
	C421.647,419.597,401.385,439.859,376.471,439.859z M60.235,379.623h301.176V108.565H60.235V379.623z"/>
<path style="fill:#00A344;" d="M218.353,349.506c-10.963,0-21.414-4.781-28.589-13.146L99.411,230.948
	c-13.53-15.789-11.701-39.552,4.088-53.082c15.782-13.545,39.544-11.716,53.09,4.081l59.068,68.909L402.342,25.741
	c28.898-40.478,59.144-18.063,30.118,22.588l-183.477,285.41c-6.731,9.419-17.416,15.217-28.973,15.729
	C219.452,349.491,218.903,349.506,218.353,349.506z"/>
<g>
</g>
<g>
</g>
<g>
</g>
<g>
</g>
<g>
</g>
<g>
</g>
<g>
</g>
<g>
</g>
<g>
</g>
<g>
</g>
<g>
</g>
<g>
</g>
<g>
</g>
<g>
</g>
<g>
</g>
</svg>
