<svg id="Layer_6_copy" height="512" viewBox="0 0 64 64" width="512" xmlns="http://www.w3.org/2000/svg" data-name="Layer 6 copy"><path d="m53.2134 21.6866a1 1 0 0 1 -.7071-.2929l-9.9-9.9a1 1 0 0 1 0-1.4141l6.3643-6.3638a4.0045 4.0045 0 0 1 5.6567 0l5.6568 5.6568a4.0043 4.0043 0 0 1 0 5.6567l-6.3641 6.3644a1 1 0 0 1 -.7066.2929zm-8.4859-10.9 8.4859 8.4859 5.6566-5.6571a2.003 2.003 0 0 0 0-2.8287l-5.6566-5.6567a2.0034 2.0034 0 0 0 -2.8286 0z" fill="#373737"/><path d="m12.2012 61.4537a3.9873 3.9873 0 0 1 -2.8286-1.1694l-5.6568-5.6567a4.0045 4.0045 0 0 1 0-5.6568l6.3642-6.3642a1.0294 1.0294 0 0 1 1.4141 0l9.9 9.9a1 1 0 0 1 0 1.414l-6.3643 6.3638a3.9864 3.9864 0 0 1 -2.8286 1.1693zm-1.4146-16.726-5.6566 5.6572a2.0029 2.0029 0 0 0 0 2.8286l5.6566 5.6565a2.0034 2.0034 0 0 0 2.8286 0l5.6573-5.6567z" fill="#373737"/><circle cx="32" cy="32" fill="#4d4d4d" r="29"/><circle cx="32" cy="32" fill="#373737" r="27"/><path d="m48.971 52.506-13.435-13.435 3.535-3.535 16.264 16.263z" fill="#64964b"/><path d="m45.435 56.042-15.506-15.506 3.535-3.536 18.335 18.335z" fill="#8cd25f"/><path d="m52.506 48.971-13.435-13.435 3.536-3.536 16.263 16.264z" fill="#8cd25f"/><rect fill="#fce5bb" height="12" rx="2" transform="matrix(0 -1 1 0 14 44)" width="12" x="23" y="9"/><path d="m25 12.5148h6.4853a0 0 0 0 1 0 0v8.4852a0 0 0 0 1 0 0h-8.4853a0 0 0 0 1 0 0v-6.4852a2 2 0 0 1 2-2z" fill="#fef4e3" transform="matrix(0 -1 1 0 10.485 44)"/><path d="m42.7236 29.3631a27.0706 27.0706 0 0 1 -5.4465 0 5.6985 5.6985 0 0 1 -4.93-4.1866 19.2484 19.2484 0 0 1 0-10.3522 5.6982 5.6982 0 0 1 4.93-4.1865 27.0559 27.0559 0 0 1 5.4465 0 5.6985 5.6985 0 0 1 4.9305 4.1866 19.249 19.249 0 0 1 0 10.3521 5.6985 5.6985 0 0 1 -4.9305 4.1866z" fill="#cf8c58"/><path d="m48.5 20.5h-2.7988a7.624 7.624 0 0 1 -5.9824-2.875 5.63 5.63 0 0 0 -4.42-2.125h-2.7988v-2h2.7988a7.6243 7.6243 0 0 1 5.9824 2.875 5.63 5.63 0 0 0 4.42 2.125h2.7988z" fill="#d9a379"/><path d="m47.5 26.5h-2.7988a7.624 7.624 0 0 1 -5.9824-2.875 5.63 5.63 0 0 0 -4.42-2.125h-2.7988v-2h2.7988a7.6243 7.6243 0 0 1 5.9824 2.875 5.63 5.63 0 0 0 4.42 2.125h2.7988z" fill="#d9a379"/><path d="m40.0005 30.5a28.111 28.111 0 0 1 -2.8242-.1416 6.7255 6.7255 0 0 1 -5.7963-4.923 20.2361 20.2361 0 0 1 0-10.8691 6.7278 6.7278 0 0 1 5.7959-4.9238 28.1213 28.1213 0 0 1 5.6474 0 6.7255 6.7255 0 0 1 5.7967 4.9238 20.2324 20.2324 0 0 1 0 10.8681 6.723 6.723 0 0 1 -5.7959 4.9239 28.0778 28.0778 0 0 1 -2.8236.1417zm0-18.999a26.1216 26.1216 0 0 0 -2.6231.1318 4.7171 4.7171 0 0 0 -4.0654 3.45 18.3219 18.3219 0 0 0 0 9.8359 4.716 4.716 0 0 0 4.0654 3.4492 26.1487 26.1487 0 0 0 5.2452 0 4.7137 4.7137 0 0 0 4.0654-3.4492 18.3255 18.3255 0 0 0 0-9.8369 4.7151 4.7151 0 0 0 -4.0654-3.4492 26.1017 26.1017 0 0 0 -2.6221-.1317z" fill="#c36f2e"/><rect fill="#fce5bb" height="12" rx="2" transform="matrix(.707 -.707 .707 .707 -8.284 20)" width="12" x="14" y="14"/><path d="m15.2721 15.7575h6.4853a0 0 0 0 1 0 0v8.4853a0 0 0 0 1 0 0h-8.4853a0 0 0 0 1 0 0v-6.4853a2 2 0 0 1 2-2z" fill="#fef4e3" transform="matrix(.707 -.707 .707 .707 -9.012 18.243)"/><rect fill="#fa5046" height="10" rx="2" transform="matrix(-1 0 0 -1 50 92)" width="20" x="15" y="41"/><g fill="#ff695f"><path d="m23.5326 41.5416a8.2463 8.2463 0 0 1 0 8.917l-.3489.5414h2.3263a10.22 10.22 0 0 0 0-10h-2.326z"/><path d="m17.5326 41.5416a8.2463 8.2463 0 0 1 0 8.917l-.3489.5414h2.3263a10.22 10.22 0 0 0 0-10h-2.326z"/><path d="m29.5326 41.5416a8.2463 8.2463 0 0 1 0 8.917l-.3489.5414h2.3263a10.22 10.22 0 0 0 0-10h-2.326z"/></g><rect fill="#ff8f82" height="10" rx="2" transform="matrix(-1 0 0 -1 42 75)" width="20" x="11" y="32.5"/><path d="m19.5326 33.0416a8.2463 8.2463 0 0 1 0 8.917l-.3489.5415h2.3263a10.22 10.22 0 0 0 0-10h-2.326z" fill="#ff695f"/><path d="m13.5326 33.0416a8.2463 8.2463 0 0 1 0 8.917l-.3489.5415h2.3263a10.22 10.22 0 0 0 0-10h-2.326z" fill="#ff695f"/><path d="m25.5326 33.0416a8.2463 8.2463 0 0 1 0 8.917l-.3489.5415h2.3263a10.22 10.22 0 0 0 0-10h-2.326z" fill="#ff695f"/><rect fill="#fa5046" height="10" rx="2" transform="matrix(-1 0 0 -1 38 58)" width="20" x="9" y="24"/><path d="m17.5326 24.5416a8.2463 8.2463 0 0 1 0 8.917l-.3489.5414h2.3263a10.22 10.22 0 0 0 0-10h-2.326z" fill="#ff695f"/><path d="m11.5326 24.5416a8.2463 8.2463 0 0 1 0 8.917l-.3489.5414h2.3263a10.22 10.22 0 0 0 0-10h-2.326z" fill="#ff695f"/><path d="m23.5326 24.5416a8.2463 8.2463 0 0 1 0 8.917l-.3489.5414h2.3263a10.22 10.22 0 0 0 0-10h-2.326z" fill="#ff695f"/><path d="m40.3787 28.4825a8.96 8.96 0 0 0 -3.3122-6.4817 8.9938 8.9938 0 0 0 -14.6392 7.6175 4.5634 4.5634 0 0 1 -.9926 3.3017 5.9849 5.9849 0 0 0 6.8332 9.4212 4.8411 4.8411 0 0 1 4.569.46 7.1646 7.1646 0 0 0 4.7839 1.1478 7.1972 7.1972 0 0 0 4.2765-12.2372 4.9807 4.9807 0 0 1 -1.5186-3.2293z" fill="#f5fcfc"/><circle cx="32" cy="32" fill="#ffcb1e" r="6"/><circle cx="30" cy="31" fill="#ffe078" r="2"/><path d="m50.7236 41.3631a27.0706 27.0706 0 0 1 -5.4465 0 5.6985 5.6985 0 0 1 -4.93-4.1866 19.2484 19.2484 0 0 1 0-10.3522 5.6982 5.6982 0 0 1 4.93-4.1865 27.0559 27.0559 0 0 1 5.4465 0 5.6985 5.6985 0 0 1 4.9305 4.1866 19.249 19.249 0 0 1 0 10.3521 5.6985 5.6985 0 0 1 -4.9305 4.1866z" fill="#cf8c58"/><path d="m56.5 32.5h-2.7988a7.624 7.624 0 0 1 -5.9824-2.875 5.63 5.63 0 0 0 -4.42-2.125h-2.7988v-2h2.7988a7.6243 7.6243 0 0 1 5.9824 2.875 5.63 5.63 0 0 0 4.42 2.125h2.7988z" fill="#d9a379"/><path d="m55.5 38.5h-2.7988a7.624 7.624 0 0 1 -5.9824-2.875 5.63 5.63 0 0 0 -4.42-2.125h-2.7988v-2h2.7988a7.6243 7.6243 0 0 1 5.9824 2.875 5.63 5.63 0 0 0 4.42 2.125h2.7988z" fill="#d9a379"/><path d="m48.0005 42.5a28.111 28.111 0 0 1 -2.8242-.1416 6.7255 6.7255 0 0 1 -5.7963-4.923 20.2361 20.2361 0 0 1 0-10.8691 6.7278 6.7278 0 0 1 5.7959-4.9238 28.1213 28.1213 0 0 1 5.6474 0 6.7255 6.7255 0 0 1 5.7967 4.9238 20.2324 20.2324 0 0 1 0 10.8681 6.723 6.723 0 0 1 -5.7959 4.9239 28.0778 28.0778 0 0 1 -2.8236.1417zm0-18.999a26.1216 26.1216 0 0 0 -2.6231.1318 4.7171 4.7171 0 0 0 -4.0654 3.45 18.3219 18.3219 0 0 0 0 9.8359 4.716 4.716 0 0 0 4.0654 3.4492 26.1487 26.1487 0 0 0 5.2452 0 4.7137 4.7137 0 0 0 4.0654-3.4492 18.3255 18.3255 0 0 0 0-9.8369 4.7151 4.7151 0 0 0 -4.0654-3.4492 26.1017 26.1017 0 0 0 -2.6221-.1317z" fill="#c36f2e"/><path d="m21.6371 51.3379a1.995 1.995 0 0 0 .7228 3.2932 6.5027 6.5027 0 0 0 8.2711-8.2711 1.995 1.995 0 0 0 -3.2932-.7228l-1.0826 1.0828-1.4142-1.4144a1 1 0 0 0 -1.4142 0l-2.1213 2.1213a1 1 0 0 0 0 1.4142l1.4145 1.4142z" fill="#fef4e3"/><circle cx="35" cy="50" fill="#764c2c" r="7"/><path d="m36.1912 51.1913a7.8021 7.8021 0 0 0 3.2633-1.1913 7.8033 7.8033 0 0 0 -3.2633-1.1911 7.802 7.802 0 0 0 -1.1912-3.2633 7.802 7.802 0 0 0 -1.1912 3.2634 7.8033 7.8033 0 0 0 -3.2633 1.191 7.8021 7.8021 0 0 0 3.2633 1.1912 7.803 7.803 0 0 0 1.1912 3.2635 7.803 7.803 0 0 0 1.1912-3.2634z" fill="#ffe078"/></svg>