<svg height="480pt" viewBox="-6 0 480 480.00011" width="480pt" xmlns="http://www.w3.org/2000/svg"><path d="m162.097656 196.496094-142.113281-38.824219c-8.527344-2.304687-13.574219-11.085937-11.273437-19.617187 2.304687-8.527344 11.085937-13.574219 19.617187-11.269532l132.871094 35.910156zm0 0" fill="#b9b9b9"/><path d="m150.03125 159.671875-1.046875 3.441406c-2.753906 9.234375-4.570313 18.722657-5.425781 28.320313l18.539062 5.0625-.898437-33.808594zm0 0" fill="#a8a8a8"/><path d="m436.0625 236.984375c-6.117188-15.710937-61.160156-41.390625-131.199219-60.320313-70.039062-18.929687-130.496093-24.457031-143.695312-13.96875l-2.625 3.433594-3.128907 11.582032c-11.527343 42.652343 13.703126 86.574218 56.355469 98.105468l123.566407 33.390625c42.664062 11.550781 86.605468-13.683593 98.136718-56.351562l3.28125-12.855469zm0 0" fill="#e06661"/><path d="m304.847656 176.808594c-76.746094-20.757813-142.230468-25.488282-146.269531-10.5625-4.035156 14.921875 54.90625 43.847656 131.652344 64.601562 76.746093 20.757813 142.234375 25.488282 146.269531 10.566406 4.035156-14.925781-54.90625-43.847656-131.652344-64.605468zm0 0" fill="#878787"/><path d="m296.542969 207.558594c-62.953125-17.011719-115.390625-25.621094-117.121094-19.222656-1.726563 6.398437 47.90625 25.378906 110.859375 42.394531 62.957031 17.011719 115.394531 25.621093 117.121094 19.222656 1.730468-6.398437-47.902344-25.378906-110.859375-42.394531zm0 0" fill="#6f7478"/><path d="m266.535156 265.289062c-.761718-.003906-1.523437-.117187-2.253906-.328124-5.265625-1.554688-10.425781-3.132813-15.480469-4.738282-4.210937-1.335937-6.539062-5.835937-5.199219-10.046875 1.335938-4.210937 5.835938-6.539062 10.046876-5.199219 4.933593 1.566407 9.980468 3.113282 15.144531 4.632813 3.824219 1.113281 6.246093 4.875 5.675781 8.816406-.566406 3.945313-3.949219 6.871094-7.933594 6.863281zm0 0" fill="#ee6d67"/><path d="m313.015625 277.296875c-.589844 0-1.175781-.066406-1.75-.191406-5.175781-1.152344-10.429687-2.390625-15.761719-3.714844-4.21875-1.121094-6.757812-5.417969-5.707031-9.652344 1.046875-4.238281 5.300781-6.851562 9.554687-5.875 5.207032 1.289063 10.351563 2.496094 15.390626 3.625 3.980468.886719 6.65625 4.625 6.210937 8.675781-.441406 4.054688-3.859375 7.125-7.9375 7.132813zm0 0" fill="#ee6d67"/><path d="m307.734375 40h32v40h-32zm0 0" fill="#f7ba61"/><path d="m307.734375 40h32v20h-32zm0 0" fill="#ea9d2d"/><path d="m311.734375 8h24c11.046875 0 20 8.953125 20 20s-8.953125 20-20 20h-24c-11.042969 0-20-8.953125-20-20s8.957031-20 20-20zm0 0" fill="#985713"/><path d="m371.601562 96.992188 31.007813-25.269532 25.269531 31.003906-31.007812 25.273438zm0 0" fill="#aac16b"/><path d="m371.589844 96.996094 27.0625-22.054688 22.648437 27.785156-27.0625 22.058594zm0 0" fill="#a4bb67"/><path d="m275.734375 72c0 13.253906-10.742187 24-24 24-13.253906 0-24-10.746094-24-24s10.746094-24 24-24c13.257813 0 24 10.746094 24 24zm0 0" fill="#f55648"/><path d="m250.472656 48.128906c-7.042968.371094-13.558594 3.835938-17.800781 9.472656-4.332031 7.410157-3.214844 16.792969 2.726563 22.984376 5.945312 6.191406 15.277343 7.683593 22.859374 3.65625 7.578126-4.023438 11.566407-12.59375 9.765626-20.984376-1.804688-8.390624-8.953126-14.570312-17.519532-15.128906zm0 0" fill="#ff5a4b"/><g fill="#fbedbf"><path d="m243.726562 120h16v16h-16zm0 0"/><path d="m315.726562 104h16v16h-16zm0 0"/><path d="m315.726562 136h16v24h-16zm0 0"/><path d="m403.726562 144h16v16h-16zm0 0"/><path d="m403.726562 176h16v16h-16zm0 0"/></g><path d="m190.609375 472-7.65625-22.960938c-5.320313-15.953124-3.695313-33.410156 4.472656-48.109374l27.183594-48.929688v44c0 12.980469 4.210937 25.613281 12 36s12 23.019531 12 36v4zm0 0" fill="#f08b24"/><path d="m140.632812 451.566406 15.171876-5.058594 7.65625 22.960938-15.171876 5.058594zm0 0" fill="#fbedbf"/><path d="m155.09375 380.109375 17.785156-31.996094 13.984375 7.773438-17.785156 31.996093zm0 0" fill="#fbedbf"/><path d="m140.625 451.566406c-6.007812-18.085937-4.164062-37.859375 5.078125-54.527344l13.984375 7.777344c-7.070312 12.742188-8.476562 27.867188-3.878906 41.695313zm0 0" fill="#fbedbf"/><path d="m346.800781 400.929688-27.183593-48.929688v44c0 12.980469-4.210938 25.613281-12 36-1.074219 1.433594-1.90625 3-2.839844 4.511719 3.578125-16.960938.917968-34.640625-7.488282-49.800781l-32.617187-58.710938v52.800781c0 15.578125-5.050781 30.738281-14.398437 43.199219-9.347657 12.464844-14.402344 27.621094-14.402344 43.199219v4.800781h107.746094l7.65625-22.960938c5.316406-15.953124 3.695312-33.410156-4.472657-48.109374zm0 0" fill="#fd9226"/><path d="m346.140625 355.882812 13.988281-7.769531 10.734375 19.320313-13.984375 7.773437zm0 0" fill="#fbedbf"/><path d="m395.871094 432.257812-16-.515624c.296875-9.398438-1.953125-18.703126-6.519532-26.925782l-8.449218-15.199218 13.984375-7.769532 8.449219 15.199219c5.976562 10.75 8.925781 22.917969 8.535156 35.210937zm0 0" fill="#fbedbf"/><path d="m369.554688 469.46875 5.335937-15.996094 15.171875 5.0625-5.339844 15.996094zm0 0" fill="#fbedbf"/><path d="m180.714844 332.425781 8-16 14.308594 7.15625-7.996094 16zm0 0" fill="#fbedbf"/><path d="m457.527344 125.65625-11.3125-11.3125c6.597656-6.613281 7.625-16.960938 2.457031-24.742188l-3.449219-5.183593 13.3125-8.867188 3.449219 5.167969c9.382813 14.136719 7.519531 32.921875-4.457031 44.9375zm0 0" fill="#fbedbf"/><path d="m220.910156 250.113281c3.867188 0 7.179688-2.765625 7.871094-6.570312.691406-3.804688-1.433594-7.558594-5.054688-8.917969-30.460937-11.480469-53.285156-23.265625-62.398437-32.144531l-7.671875-8c-.265625-.21875-.550781-.417969-.847656-.59375-.480469 8.171875.304687 16.367187 2.335937 24.296875 19.460938 13.273437 40.636719 23.84375 62.945313 31.417968.902344.335938 1.859375.507813 2.820312.511719zm0 0" fill="#ee6d67"/><path d="m160.207031 154.113281-129.703125-35.015625c-2.082031-.582031-4.238281-.867187-6.398437-.859375-12.078125-.050781-22.3125 8.878907-23.898438 20.851563-1.585937 11.972656 5.972657 23.257812 17.648438 26.351562l126.921875 34.261719c.488281 39.320313 26.976562 73.558594 64.917968 83.898437l123.609376 33.359376c22.53125 6.109374 46.566406 3.003906 66.804687-8.625 20.238281-11.632813 35.023437-30.835938 41.089844-53.375l3.121093-11.601563c3.238282-12-9.382812-24.503906-39.746093-39.390625-31.398438-14.621094-64.066407-26.34375-97.597657-35.023438-13.054687-3.539062-114.488281-30.152343-146.769531-14.832031zm-138.152343-4.144531c-4.265626-1.164062-6.777344-5.566406-5.613282-9.832031 1.164063-4.265625 5.566406-6.78125 9.832032-5.617188l123.574218 33.359375-2.09375 7.722656c-.707031 2.605469-1.234375 5.222657-1.699218 7.839844zm315.417968 151.511719-123.601562-33.359375c-21.75-5.910156-39.464844-21.691406-47.839844-42.617188 16.613281 9.542969 34.03125 17.609375 52.058594 24.097656.902344.335938 1.859375.507813 2.820312.511719 3.867188 0 7.179688-2.765625 7.871094-6.570312.691406-3.804688-1.433594-7.558594-5.054688-8.917969-30.460937-11.480469-53.285156-23.265625-62.597656-32.34375-.089844-.089844-.21875-.113281-.3125-.199219-.261718-5.445312.097656-10.902343 1.070313-16.265625 18.695312 13.535156 39.324219 24.179688 61.183593 31.574219l3.355469 1.25c2.078125.777344 4.148438 1.539063 6.207031 2.28125 13.375 4.871094 27.742188 9.597656 42.734376 13.902344 6.113281 1.792969 10.664062 3.046875 12.800781 3.625 5.332031 1.4375 10.625 2.800781 15.871093 4.085937 1.21875.304688 2.402344.585938 3.632813.871094 4.265625 1.035156 8.496094 2.019531 12.6875 2.953125l2.847656.617187c4.738281 1.066407 9.410157 2.035157 14.015625 2.902344.328125.058594.648438.128906.96875.191406 15.664063 3.027344 30.402344 5.242188 43.671875 6.546876l.417969.039062c2.648438.253906 5.3125.519531 7.832031.695312 1.519531.113282 2.910157.167969 4.367188.25h.421875c4 .222657 7.90625.375 11.433594.375 5.84375.054688 11.683593-.378906 17.457031-1.296874-12.816407 35.046874-50.285157 54.492187-86.320313 44.800781zm24.136719-63.601563c-4.066406-.621094-8.195313-1.292968-12.449219-2.054687l-2.207031-.382813c-5.453125-1-11.023437-2.101562-16.722656-3.304687l-1.414063-.304688c-5.082031-1.089843-10.265625-2.273437-15.480468-3.519531l-3.472657-.800781c-5.785156-1.40625-11.625-2.886719-17.503906-4.480469-5.878906-1.589844-11.671875-3.246094-17.390625-4.949219-1.144531-.339843-2.25-.683593-3.375-1.019531-5.136719-1.550781-10.203125-3.132812-15.136719-4.796875l-1.433593-.464844c-5.503907-1.8125-10.855469-3.664062-16.054688-5.550781l-2.199219-.800781c-4-1.472657-7.882812-2.960938-11.671875-4.457031-.867187-.335938-1.746094-.679688-2.59375-1.023438 24.253906 3.730469 48.273438 8.847656 71.945313 15.320312 23.714843 6.328126 47.046875 14.011719 69.878906 23.015626zm66.804687 1.175782c-6.042968 2.320312-12.519531 3.308593-18.980468 2.890624-35.164063-18.320312-72.355469-32.457031-110.808594-42.113281-38.066406-11.09375-77.320312-17.625-116.929688-19.449219-5.789062-2.898437-10.890624-7.007812-14.960937-12.046874 8.875-5.480469 58.867187-4.800782 136.066406 16.054687 77.199219 20.859375 120.726563 45.472656 125.625 54.664063zm0 0"/><path d="m268.792969 249.601562c-5.152344-1.519531-10.199219-3.066406-15.144531-4.632812-4.210938-1.339844-8.710938.988281-10.046876 5.199219-1.339843 4.210937.988282 8.710937 5.199219 10.046875 5.050781 1.601562 10.210938 3.179687 15.480469 4.738281.730469.210937 1.492188.324219 2.253906.328125 3.984375.007812 7.367188-2.917969 7.933594-6.863281.570312-3.941407-1.851562-7.703125-5.675781-8.816407zm0 0"/><path d="m314.742188 261.488281c-5.039063-1.128906-10.183594-2.335937-15.390626-3.625-4.253906-.976562-8.507812 1.636719-9.554687 5.875-1.050781 4.234375 1.488281 8.53125 5.707031 9.652344 5.332032 1.320313 10.585938 2.554687 15.761719 3.714844.574219.125 1.160156.191406 1.75.191406 4.078125-.007813 7.496094-3.078125 7.9375-7.132813.445313-4.050781-2.230469-7.789062-6.210937-8.675781zm0 0"/><path d="m283.726562 28c.046876 10.773438 6.265626 20.566406 16 25.183594v26.816406c0 4.417969 3.582032 8 8 8h32c4.417969 0 8-3.582031 8-8v-26.800781c11.839844-5.585938 18.210938-18.640625 15.332032-31.410157-2.882813-12.769531-14.242188-21.8242182-27.332032-21.789062h-24c-15.460937 0-28 12.535156-28 28zm32 44v-16h16v16zm32-44c0 6.628906-5.371093 12-12 12h-24c-6.625 0-12-5.371094-12-12s5.375-12 12-12h24c6.628907 0 12 5.371094 12 12zm0 0"/><path d="m435.871094 103.542969c.210937-2.113281-.421875-4.222657-1.757813-5.871094l-25.273437-31.007813c-1.34375-1.640624-3.28125-2.683593-5.390625-2.894531-2.113281-.246093-4.234375.390625-5.863281 1.75l-31 25.273438c-3.429688 2.789062-3.945313 7.828125-1.152344 11.253906l25.269531 31.007813c1.339844 1.644531 3.277344 2.6875 5.386719 2.90625.265625.015624.53125.015624.796875 0 1.84375 0 3.628906-.636719 5.058593-1.800782l31.007813-25.265625c1.640625-1.328125 2.691406-3.25 2.917969-5.351562zm-37.816406 13.199219-15.199219-18.597657 18.59375-15.199219 15.199219 18.605469zm0 0"/><path d="m283.726562 72c0-17.671875-14.324218-32-32-32-17.671874 0-32 14.328125-32 32s14.328126 32 32 32c17.675782 0 32-14.328125 32-32zm-32 16c-8.835937 0-16-7.164062-16-16s7.164063-16 16-16c8.839844 0 16 7.164062 16 16s-7.160156 16-16 16zm0 0"/><path d="m243.726562 120h16v16h-16zm0 0"/><path d="m315.726562 104h16v16h-16zm0 0"/><path d="m315.726562 136h16v24h-16zm0 0"/><path d="m403.726562 144h16v16h-16zm0 0"/><path d="m403.726562 176h16v16h-16zm0 0"/><path d="m155.09375 380.109375 17.785156-31.996094 13.984375 7.773438-17.785156 31.996093zm0 0"/><path d="m140.625 451.566406 7.589844-2.527344-7.582032 2.527344 7.65625 22.960938 15.199219-5.054688-7.65625-22.960937c-4.597656-13.828125-3.1875-28.953125 3.878907-41.695313l-13.984376-7.777344c-9.25 16.664063-11.101562 36.4375-5.101562 54.527344zm0 0"/><path d="m351.214844 474.527344 7.640625-22.960938c6.015625-18.082031 4.179687-37.859375-5.0625-54.527344l-27.199219-48.925781c-1.785156-3.160156-5.46875-4.726562-8.980469-3.8125-3.511719.910157-5.96875 4.070313-5.988281 7.699219v44c0 1.441406-.066406 2.878906-.183594 4.320312-1.683594-6.09375-4.085937-11.96875-7.152344-17.496093l-32.625-58.710938c-1.769531-3.1875-5.472656-4.773437-9-3.859375-3.527343.917969-5.992187 4.101563-5.992187 7.746094v52.800781c-.027344 13.84375-4.515625 27.308594-12.800781 38.398438-2.960938 3.984375-5.542969 8.238281-7.710938 12.703125-1-1.597656-2.015625-3.199219-3.152344-4.6875-6.714843-9.019532-10.363281-19.953125-10.398437-31.199219v-44.015625c-.003906-3.644531-2.46875-6.824219-5.996094-7.738281-3.527343-.910157-7.226562.675781-8.996093 3.859375l-27.203126 48.941406c-9.242187 16.660156-11.085937 36.433594-5.078124 54.511719l7.679687 22.960937c1.089844 3.261719 4.140625 5.460938 7.578125 5.464844h153.03125c3.445312 0 6.503906-2.203125 7.589844-5.472656zm-160.710938-28c-4.582031-13.824219-3.175781-28.9375 3.878906-41.679688l12.210938-21.96875v13.121094c.050781 14.703125 4.816406 29.003906 13.597656 40.800781 4.105469 5.433594 7.042969 11.65625 8.632813 18.28125-.429688 2.949219-.699219 5.921875-.800781 8.902344h-31.671876zm53.449219 17.472656c.664063-12.734375 5.089844-24.984375 12.71875-35.199219 10.359375-13.863281 15.96875-30.695312 16-48v-21.9375l17.601563 31.730469c7.460937 13.476562 9.820312 29.195312 6.648437 44.269531-.792969 3.804688 1.261719 7.625 4.871094 9.0625 3.605469 1.4375 7.726562.074219 9.765625-3.230469l.800781-1.390624c.480469-.867188 1.015625-1.703126 1.601563-2.503907 8.796874-11.785156 13.566406-26.09375 13.597656-40.800781v-13.128906l12.25 21.929687c7.0625 12.75 8.464844 27.871094 3.871094 41.703125l-5.824219 17.496094zm0 0"/><path d="m346.140625 355.882812 13.988281-7.769531 10.734375 19.320313-13.984375 7.773437zm0 0"/><path d="m387.3125 397.039062-8.449219-15.199218-13.984375 7.769531 8.449219 15.199219c4.574219 8.222656 6.835937 17.53125 6.542969 26.933594l16 .515624c.386718-12.296874-2.574219-24.46875-8.558594-35.21875zm0 0"/><path d="m369.554688 469.46875 5.335937-15.996094 15.171875 5.0625-5.339844 15.996094zm0 0"/><path d="m180.714844 332.425781 8-16 14.308594 7.15625-7.996094 16zm0 0"/><path d="m457.527344 125.65625c11.96875-12.015625 13.828125-30.792969 4.449218-44.921875l-3.449218-5.167969-13.3125 8.867188 3.449218 5.183594c5.160157 7.777343 4.136719 18.113281-2.449218 24.726562zm0 0"/></svg>