<svg viewBox="-6 0 480 480" xmlns="http://www.w3.org/2000/svg">
  <path d="M162.098 196.496L19.984 157.672c-8.527-2.305-13.574-11.086-11.273-19.617 2.305-8.528 11.086-13.575 19.617-11.27l132.871 35.91zm0 0" fill="#b9b9b9"/>
  <path d="M150.031 159.672l-1.047 3.441a143.754 143.754 0 00-5.425 28.32l18.539 5.063-.899-33.809zm0 0" fill="#a8a8a8"/>
  <path d="M436.063 236.984c-6.118-15.71-61.16-41.39-131.2-60.32-70.039-18.93-130.496-24.457-143.695-13.969l-2.625 3.434-3.129 11.582c-11.527 42.652 13.703 86.574 56.356 98.105l123.566 33.391c42.664 11.55 86.605-13.684 98.137-56.352l3.28-12.855zm0 0" fill="#e06661"/>
  <path d="M304.848 176.809c-76.746-20.758-142.23-25.489-146.27-10.563-4.035 14.922 54.906 43.848 131.652 64.602 76.747 20.757 142.235 25.488 146.27 10.566 4.035-14.926-54.906-43.848-131.652-64.605zm0 0" fill="#878787"/>
  <path d="M296.543 207.559c-62.953-17.012-115.39-25.621-117.121-19.223-1.727 6.398 47.906 25.379 110.86 42.394 62.956 17.012 115.394 25.622 117.12 19.223 1.73-6.398-47.902-25.379-110.859-42.394zm0 0" fill="#6f7478"/>
  <path d="M266.535 265.29a8.298 8.298 0 01-2.254-.33 792.075 792.075 0 01-15.48-4.737 7.996 7.996 0 01-5.2-10.047 7.996 7.996 0 0110.047-5.2 744.815 744.815 0 0015.145 4.633 7.993 7.993 0 015.676 8.817 8 8 0 01-7.934 6.863zm0 0M313.016 277.297c-.59 0-1.176-.067-1.75-.192a664.96 664.96 0 01-15.762-3.714 7.996 7.996 0 01-5.707-9.653 7.998 7.998 0 019.555-5.875 709.92 709.92 0 0015.39 3.625 7.995 7.995 0 016.211 8.676 7.997 7.997 0 01-7.937 7.133zm0 0" fill="#ee6d67"/>
  <path d="M307.734 40h32v40h-32zm0 0" fill="#f7ba61"/>
  <path d="M307.734 40h32v20h-32zm0 0" fill="#ea9d2d"/>
  <path d="M311.734 8h24c11.047 0 20 8.953 20 20s-8.953 20-20 20h-24c-11.043 0-20-8.953-20-20s8.957-20 20-20zm0 0" fill="#985713"/>
  <path d="M371.602 96.992l31.007-25.27 25.27 31.005L396.87 128zm0 0" fill="#aac16b"/>
  <path d="M371.59 96.996l27.062-22.055 22.649 27.786-27.063 22.058zm0 0" fill="#a4bb67"/>
  <path d="M275.734 72c0 13.254-10.742 24-24 24-13.254 0-24-10.746-24-24s10.746-24 24-24c13.258 0 24 10.746 24 24zm0 0" fill="#f55648"/>
  <path d="M250.473 48.129a23.843 23.843 0 00-17.801 9.473 19.2 19.2 0 002.726 22.984 19.202 19.202 0 0022.86 3.656 19.2 19.2 0 00-7.754-36.113zm0 0" fill="#ff5a4b"/>
  <g fill="#fbedbf">
    <path d="M243.727 120h16v16h-16zm0 0M315.727 104h16v16h-16zm0 0M315.727 136h16v24h-16zm0 0M403.727 144h16v16h-16zm0 0M403.727 176h16v16h-16zm0 0"/>
  </g>
  <path d="M190.61 472l-7.657-22.96a59.985 59.985 0 014.473-48.11L214.609 352v44c0 12.98 4.211 25.613 12 36s12 23.02 12 36v4zm0 0" fill="#f08b24"/>
  <path d="M140.633 451.566l15.172-5.058 7.656 22.96-15.172 5.06zm0 0M155.094 380.11l17.785-31.997 13.984 7.774-17.785 31.996zm0 0" fill="#fbedbf"/>
  <path d="M140.625 451.566a68.142 68.142 0 015.078-54.527l13.984 7.777a52.077 52.077 0 00-3.878 41.696zm0 0" fill="#fbedbf"/>
  <path d="M346.8 400.93L319.618 352v44c0 12.98-4.21 25.613-12 36-1.074 1.434-1.906 3-2.84 4.512a72.03 72.03 0 00-7.488-49.801L264.672 328v52.8a71.99 71.99 0 01-14.399 43.2 72.002 72.002 0 00-14.402 43.2v4.8h107.746l7.656-22.96a60 60 0 00-4.472-48.11zm0 0" fill="#fd9226"/>
  <path d="M346.14 355.883l13.989-7.77 10.734 19.32-13.984 7.774zm0 0M395.871 432.258l-16-.516a52.07 52.07 0 00-6.52-26.926l-8.449-15.199 13.985-7.77 8.449 15.2a68.015 68.015 0 018.535 35.21zm0 0M369.555 469.469l5.336-15.996 15.171 5.062-5.34 15.996zm0 0M180.715 332.426l8-16 14.308 7.156-7.996 16zm0 0M457.527 125.656l-11.312-11.312a19.646 19.646 0 002.457-24.742l-3.45-5.184 13.313-8.867 3.45 5.168c9.382 14.136 7.519 32.922-4.458 44.937zm0 0" fill="#fbedbf"/>
  <path d="M220.91 250.113a8 8 0 007.871-6.57 7.995 7.995 0 00-5.054-8.918c-30.461-11.48-53.286-23.266-62.399-32.145l-7.672-8a6.73 6.73 0 00-.847-.593 79.177 79.177 0 002.336 24.297 260.137 260.137 0 0062.945 31.418c.902.335 1.86.507 2.82.511zm0 0" fill="#ee6d67"/>
  <path d="M160.207 154.113L30.504 119.098a23.461 23.461 0 00-6.399-.86c-12.078-.05-22.312 8.88-23.898 20.852-1.586 11.972 5.973 23.258 17.648 26.351l126.922 34.262c.489 39.32 26.977 73.559 64.918 83.899l123.61 33.359a87.913 87.913 0 00107.894-62l3.121-11.602c3.239-12-9.383-24.504-39.746-39.39a568.932 568.932 0 00-97.597-35.024c-13.055-3.539-114.489-30.152-146.77-14.832zM22.055 149.97a8.005 8.005 0 01-5.614-9.832 8.008 8.008 0 019.832-5.617l123.575 33.359-2.094 7.723c-.707 2.605-1.234 5.222-1.7 7.84zM337.473 301.48L213.87 268.121a71.815 71.815 0 01-47.84-42.617 326.506 326.506 0 0052.059 24.098 8 8 0 0010.691-6.059 7.995 7.995 0 00-5.054-8.918c-30.461-11.48-53.286-23.266-62.598-32.344-.09-.09-.219-.113-.313-.199a71.829 71.829 0 011.07-16.266 230.038 230.038 0 0061.184 31.575l3.356 1.25c2.078.777 4.148 1.539 6.207 2.28a647.812 647.812 0 0042.734 13.903 653.094 653.094 0 0012.801 3.625 709.942 709.942 0 0015.871 4.086c1.219.305 2.402.586 3.633.871a689.029 689.029 0 0012.687 2.953l2.848.618a406.108 406.108 0 0014.016 2.902c.328.058.648.129.968.191 15.664 3.028 30.403 5.242 43.672 6.547l.418.04c2.649.253 5.313.519 7.832.695 1.52.113 2.91.168 4.367.25h.422c4 .222 7.907.375 11.434.375 5.844.054 11.684-.38 17.457-1.297-12.816 35.047-50.285 54.492-86.32 44.8zm24.136-63.601a490.342 490.342 0 01-12.449-2.055l-2.207-.383c-5.453-1-11.023-2.101-16.723-3.304l-1.414-.305a683.445 683.445 0 01-15.48-3.52l-3.473-.8a687.022 687.022 0 01-17.504-4.48 713.238 713.238 0 01-17.39-4.95c-1.145-.34-2.25-.684-3.375-1.02-5.137-1.55-10.203-3.132-15.137-4.796l-1.434-.465a566.749 566.749 0 01-16.054-5.551l-2.2-.8c-4-1.473-7.882-2.962-11.671-4.458-.868-.336-1.746-.68-2.594-1.023a643.92 643.92 0 0171.945 15.32 640.87 640.87 0 0169.88 23.016zm66.805 1.176a44.877 44.877 0 01-18.98 2.89 507.17 507.17 0 00-110.809-42.113 500.173 500.173 0 00-116.93-19.45 45.314 45.314 0 01-14.96-12.046c8.874-5.48 58.867-4.8 136.066 16.055C380 205.25 423.527 229.863 428.426 239.055zm0 0"/>
  <path d="M268.793 249.602a793.29 793.29 0 01-15.145-4.633 7.996 7.996 0 00-10.046 5.199 7.996 7.996 0 005.199 10.047c5.05 1.601 10.21 3.18 15.48 4.738.73.211 1.492.324 2.254.328a8 8 0 007.934-6.863 7.993 7.993 0 00-5.676-8.816zm0 0M314.742 261.488a709.92 709.92 0 01-15.39-3.625 7.998 7.998 0 00-9.555 5.875 7.996 7.996 0 005.707 9.653 728.142 728.142 0 0015.762 3.714 7.997 7.997 0 009.688-6.941 7.995 7.995 0 00-6.212-8.676zm0 0M283.727 28a28.005 28.005 0 0016 25.184V80a8 8 0 008 8h32a8 8 0 008-8V53.2c11.84-5.587 18.21-18.641 15.332-31.41C360.176 9.02 348.816-.036 335.727 0h-24c-15.461 0-28 12.535-28 28zm32 44V56h16v16zm32-44c0 6.629-5.372 12-12 12h-24c-6.625 0-12-5.371-12-12s5.375-12 12-12h24c6.628 0 12 5.371 12 12zm0 0M435.871 103.543a8.054 8.054 0 00-1.758-5.871L408.84 66.664a7.999 7.999 0 00-5.39-2.894 7.757 7.757 0 00-5.864 1.75l-31 25.273a7.993 7.993 0 00-1.152 11.254l25.27 31.008a8.011 8.011 0 005.386 2.906c.265.016.531.016.797 0a8.01 8.01 0 005.058-1.8l31.008-25.266a7.986 7.986 0 002.918-5.352zm-37.816 13.2l-15.2-18.598 18.594-15.2 15.2 18.606zm0 0M283.727 72c0-17.672-14.325-32-32-32-17.672 0-32 14.328-32 32s14.328 32 32 32c17.675 0 32-14.328 32-32zm-32 16c-8.836 0-16-7.164-16-16s7.164-16 16-16c8.84 0 16 7.164 16 16s-7.16 16-16 16zm0 0M243.727 120h16v16h-16zm0 0M315.727 104h16v16h-16zm0 0M315.727 136h16v24h-16zm0 0M403.727 144h16v16h-16zm0 0M403.727 176h16v16h-16zm0 0M155.094 380.11l17.785-31.997 13.984 7.774-17.785 31.996zm0 0M140.625 451.566l7.59-2.527-7.582 2.527 7.656 22.961 15.2-5.054-7.657-22.961a52.093 52.093 0 013.879-41.696l-13.984-7.777a68.145 68.145 0 00-5.102 54.527zm0 0M351.215 474.527l7.64-22.96a68.109 68.109 0 00-5.062-54.528l-27.2-48.926A8 8 0 00311.626 352v44c0 1.441-.066 2.879-.184 4.32a79.975 79.975 0 00-7.152-17.496l-32.625-58.71A8 8 0 00256.672 328v52.8a64.367 64.367 0 01-12.8 38.4 79.565 79.565 0 00-7.712 12.702c-1-1.597-2.015-3.199-3.152-4.687a52.521 52.521 0 01-10.399-31.2V352a8.002 8.002 0 00-5.996-7.738 8.005 8.005 0 00-8.996 3.86l-27.203 48.94a68.105 68.105 0 00-5.078 54.512l7.68 22.961a8 8 0 007.578 5.465h153.031a7.995 7.995 0 007.59-5.473zm-160.711-28a52.169 52.169 0 013.879-41.68l12.21-21.968V396a68.729 68.729 0 0013.598 40.8 49.469 49.469 0 018.633 18.282c-.43 2.95-.699 5.922-.8 8.902h-31.672zM243.954 464a64.43 64.43 0 0112.718-35.2 80.427 80.427 0 0016-48v-21.937l17.601 31.73a64.143 64.143 0 016.649 44.27 7.998 7.998 0 0014.637 5.832l.8-1.39a23.652 23.652 0 011.602-2.504A68.458 68.458 0 00327.559 396v-13.129l12.25 21.93a52.143 52.143 0 013.87 41.703L337.856 464zm0 0M346.14 355.883l13.989-7.77 10.734 19.32-13.984 7.774zm0 0M387.313 397.04l-8.45-15.2-13.984 7.77 8.45 15.199a52.071 52.071 0 016.542 26.933l16 .516a68.017 68.017 0 00-8.558-35.219zm0 0M369.555 469.469l5.336-15.996 15.171 5.062-5.34 15.996zm0 0M180.715 332.426l8-16 14.308 7.156-7.996 16zm0 0M457.527 125.656c11.97-12.015 13.828-30.793 4.45-44.922l-3.45-5.168-13.312 8.868 3.45 5.183a19.649 19.649 0 01-2.45 24.727zm0 0"/>
</svg>