<svg viewBox="0 0 64.178 64.178" xmlns="http://www.w3.org/2000/svg">
  <path d="M16.333 9.493c-3.509-.447-6.281-3.135-6.739-6.538a1 1 0 00-1.982.001C7.154 6.358 4.383 9.046.874 9.493a1.001 1.001 0 000 1.984c3.509.448 6.28 3.136 6.738 6.538a1 1 0 001.982 0c.458-3.402 3.229-6.09 6.739-6.538a1 1 0 000-1.984zM22.336 18.17a3.562 3.562 0 01-3.066-3.065 1 1 0 00-1.984 0 3.562 3.562 0 01-3.066 3.065 1 1 0 000 1.984 3.563 3.563 0 013.066 3.066 1 1 0 001.984 0 3.563 3.563 0 013.066-3.066 1 1 0 000-1.984z" fill="#fff"/>
  <path d="M47.225 6.117c-5.855-.322-11.379 2.114-15.019 6.553-3.639-4.439-9.171-6.871-15.019-6.553-2.062.112-4.08.597-5.998 1.442a1 1 0 00-.239 1.681 9.87 9.87 0 001.888 1.246 9.742 9.742 0 00-4.236 4.159 9.653 9.653 0 00-2.085-2.682 1 1 0 00-1.421.084C1.968 15.615.242 20.291.237 25.215.208 51.703 31.59 61.943 31.907 62.043a1.001 1.001 0 00.604 0c.317-.101 31.699-10.34 31.669-36.828-.013-10.364-7.301-18.574-16.955-19.098z" fill="#ff3f62"/>
  <g fill="#ffa5b5">
    <path d="M56.625 20.07a1 1 0 01-.886-.534c-2.04-3.872-5.577-6.222-9.706-6.449a1 1 0 01-.943-1.054.993.993 0 011.054-.943c4.776.263 9.025 3.072 11.365 7.514a1 1 0 01-.884 1.466zM58.308 25.905a1 1 0 01-.996-.918 14.466 14.466 0 00-.348-2.183 1 1 0 011.945-.465c.194.814.328 1.649.396 2.485a1 1 0 01-.997 1.081zM28.033 54.963a.986.986 0 01-.355-.066c-.478-.182-11.759-4.566-17.452-14.303a1 1 0 011.726-1.01c5.33 9.117 16.328 13.402 16.438 13.444a1.001 1.001 0 01-.357 1.935z"/>
  </g>
  <path d="M17.207 10.485c0-.503-.375-.928-.874-.992-3.509-.447-6.281-3.135-6.739-6.538a1 1 0 00-1.982.001C7.154 6.358 4.383 9.046.874 9.493a1.001 1.001 0 000 1.984c3.509.448 6.28 3.136 6.738 6.538a1 1 0 001.982 0c.458-3.402 3.229-6.09 6.739-6.538a.999.999 0 00.874-.992zM22.336 18.17a3.562 3.562 0 01-3.066-3.065 1 1 0 00-1.984 0 3.562 3.562 0 01-3.066 3.065 1 1 0 000 1.984 3.563 3.563 0 013.066 3.066 1 1 0 001.984 0 3.563 3.563 0 013.066-3.066 1 1 0 000-1.984z" fill="#ffb655"/>
</svg>