<svg id="Layer_1" enable-background="new 0 0 64.178 64.178" height="512" viewBox="0 0 64.178 64.178" width="512" xmlns="http://www.w3.org/2000/svg"><g><path d="m16.333 9.493c-3.509-.447-6.281-3.135-6.739-6.538-.067-.496-.49-.866-.991-.866-.5 0-.924.37-.991.867-.458 3.402-3.229 6.09-6.738 6.537-.499.064-.874.489-.874.992s.374.928.874.992c3.509.448 6.28 3.136 6.738 6.538.067.497.491.867.991.867s.924-.37.991-.867c.458-3.402 3.229-6.09 6.739-6.538.5-.064.874-.489.874-.992s-.375-.928-.874-.992z" fill="#fff"/><path d="m22.336 18.17c-1.596-.209-2.857-1.469-3.066-3.065-.065-.498-.49-.87-.992-.87s-.926.372-.992.87c-.209 1.596-1.47 2.856-3.066 3.065-.498.065-.87.49-.87.992s.372.926.87.992c1.596.209 2.857 1.47 3.066 3.066.066.498.49.87.992.87s.926-.372.992-.87c.209-1.596 1.47-2.857 3.066-3.066.498-.066.87-.49.87-.992.001-.503-.372-.927-.87-.992z" fill="#fff"/><path d="m47.225 6.117c-5.855-.322-11.379 2.114-15.019 6.553-3.639-4.439-9.171-6.871-15.019-6.553-2.062.112-4.08.597-5.998 1.442-.316.139-.538.432-.587.774-.048.342.083.685.348.907.583.489 1.216.906 1.888 1.246-1.818.92-3.304 2.378-4.236 4.159-.524-.999-1.228-1.909-2.085-2.682-.199-.18-.461-.276-.728-.255-.267.016-.517.138-.693.339-3.128 3.568-4.854 8.244-4.859 13.168-.029 26.488 31.353 36.728 31.67 36.828.098.031.2.046.302.046s.204-.016.302-.046c.317-.101 31.699-10.34 31.669-36.828-.013-10.364-7.301-18.574-16.955-19.098z" fill="#ff3f62"/><g fill="#ffa5b5"><path d="m56.625 20.07c-.359 0-.707-.194-.886-.534-2.04-3.872-5.577-6.222-9.706-6.449-.551-.03-.974-.502-.943-1.054.03-.551.495-.977 1.054-.943 4.776.263 9.025 3.072 11.365 7.514.257.489.07 1.094-.418 1.351-.149.078-.308.115-.466.115z"/><path d="m58.308 25.905c-.516 0-.953-.396-.996-.918-.06-.734-.177-1.469-.348-2.183-.128-.537.203-1.077.74-1.205s1.077.203 1.205.74c.194.814.328 1.649.396 2.485.045.55-.365 1.033-.915 1.078-.028.002-.055.003-.082.003z"/><path d="m28.033 54.963c-.118 0-.238-.021-.355-.066-.478-.182-11.759-4.566-17.452-14.303-.279-.477-.118-1.089.358-1.368.478-.278 1.09-.118 1.368.358 5.33 9.117 16.328 13.402 16.438 13.444.516.197.774.775.578 1.291-.153.398-.532.644-.935.644z"/></g><path d="m17.207 10.485c0-.503-.375-.928-.874-.992-3.509-.447-6.281-3.135-6.739-6.538-.067-.496-.49-.866-.991-.866-.5 0-.924.37-.991.867-.458 3.402-3.229 6.09-6.738 6.537-.499.064-.874.489-.874.992s.374.928.874.992c3.509.448 6.28 3.136 6.738 6.538.067.497.491.867.991.867s.924-.37.991-.867c.458-3.402 3.229-6.09 6.739-6.538.5-.063.874-.488.874-.992z" fill="#ffb655"/><path d="m22.336 18.17c-1.596-.209-2.857-1.469-3.066-3.065-.065-.498-.49-.87-.992-.87s-.926.372-.992.87c-.209 1.596-1.47 2.856-3.066 3.065-.498.065-.87.49-.87.992s.372.926.87.992c1.596.209 2.857 1.47 3.066 3.066.066.498.49.87.992.87s.926-.372.992-.87c.209-1.596 1.47-2.857 3.066-3.066.498-.066.87-.49.87-.992.001-.503-.372-.927-.87-.992z" fill="#ffb655"/></g></svg>