<svg xmlns="http://www.w3.org/2000/svg" viewBox="0 0 512 512">
  <path d="M37.371 447.385v36.189c0 2.082 1.178 3.994 3.06 4.965a5.823 5.823 0 002.675.646 5.81 5.81 0 003.238-.98l21.392-14.33 23.907 14.864a5.819 5.819 0 003.076.874 5.82 5.82 0 002.758-.693c1.837-.986 2.975-2.87 2.975-4.917v-36.618H37.371z" fill="#ff3d6c"/>
  <path d="M402.556 245h-53.017v195.641c0 3.258-2.374 5.993-5.5 6.611v.133h52.077c3.763 0 6.841-3.034 6.841-6.744V244.959c-.135.012-.264.041-.401.041z" fill="#b2b4ce"/>
  <path d="M349.539 245v195.641c0 3.258-2.374 5.993-5.5 6.611v.133h26.128c3.763 0 6.842-3.034 6.842-6.744V245h-27.47z" fill="#cfcfd9"/>
  <path d="M402.556 175h-53.017v70h53.017c2.75 0 5-2.25 5-5v-68.792c0-.207-.036-.403-.062-.604-.304 2.464-2.395 4.396-4.938 4.396z" fill="#ffcb00"/>
  <path d="M402.556 101.179h-53.017V175h53.017c2.75 0 5-2.25 5-5v-68.791c0-.92-.269-1.772-.707-2.516-.871 1.478-2.463 2.486-4.293 2.486z" fill="#ff5e97"/>
  <path d="M342.698 22.387H21.184c-7.525 0-13.684 6.068-13.684 13.488v398.022c0 7.42 6.158 13.488 13.684 13.488h321.515c3.763 0 6.841-3.034 6.841-6.744V29.131c-.001-3.71-3.079-6.744-6.842-6.744z" fill="#f6b245"/>
  <path d="M402.556 22.387h-53.517a4.953 4.953 0 00-2.887.937c2.02 1.176 3.387 3.339 3.387 5.808v72.048h53.017c2.75 0 5-2.25 5-5V27.387c0-2.75-2.25-5-5-5z" fill="#82ddab"/>
  <path d="M366 96.179V27.387c0-2.75 2.25-5 5-5h-21.961a4.953 4.953 0 00-2.887.937c2.02 1.176 3.387 3.339 3.387 5.808v72.048H371c-2.75-.001-5-2.251-5-5.001z" opacity=".1"/>
  <path d="M366 170v-68.792c0-.01.003-.02.003-.029h-16.464V175H371c-2.75 0-5-2.25-5-5zM366 240v-65h-16.461v70H371c-2.75 0-5-2.25-5-5z" opacity=".1"/>
  <path d="M59.59 22.387H21.184c-7.525 0-13.684 6.068-13.684 13.488v398.022c0 7.42 6.158 13.488 13.684 13.488H59.59V22.387z" fill="#f39600"/>
  <path d="M155.689 270.201v-66.92c0-2.33-1.893-4.231-4.255-4.271-19.153-.338-34.735-15.973-34.735-34.858 0-19.229 15.871-34.874 35.38-34.874 9.486 0 18.395 3.652 25.089 10.287.812.807 1.918 1.26 3.071 1.26s2.259-.453 3.071-1.26c6.693-6.635 15.604-10.287 25.09-10.287 9.484 0 18.395 3.652 25.088 10.287a4.357 4.357 0 003.071 1.26c1.154 0 2.26-.453 3.071-1.26 6.693-6.635 15.602-10.287 25.09-10.287 19.509 0 35.379 15.645 35.379 34.874 0 18.886-15.581 34.521-34.734 34.858-2.362.04-4.256 1.941-4.256 4.271v66.92h-105.42z" fill="#fff"/>
  <path d="M479.614 140.443h-38.911c-.256 0-.502-.038-.747-.076v246.287h40.405V140.367c-.246.038-.491.076-.747.076z" fill="#f6b142"/>
  <g fill="#299fbc">
    <path d="M484.614 135.443c0 2.75-2.25 5-5 5h-38.911c-2.75 0-5-2.25-5-5V27.948c0-2.75 2.25-5 5-5h38.911c2.75 0 5 2.25 5 5v107.495zM439.967 386.654c0 .046-.011.091-.009.137.678 19.34 4.735 36.225 10.854 45.166a2.912 2.912 0 002.402 1.269h13.888c.961 0 1.859-.475 2.403-1.269 6.119-8.94 10.176-25.825 10.854-45.166.002-.046-.009-.091-.009-.137h-40.383z"/>
  </g>
  <path d="M499.5 30.516h-7.386v-2.567c0-6.892-5.607-12.5-12.5-12.5h-38.911c-6.893 0-12.5 5.608-12.5 12.5v107.495c0 3.731 1.652 7.076 4.253 9.369v241.842c0 .066.009.131.01.197.001.067-.005.135-.003.202.736 21.012 5.168 38.923 12.161 49.141a10.394 10.394 0 008.035 4.497v10.488c0 4.143 3.357 7.5 7.5 7.5s7.5-3.357 7.5-7.5v-10.488a10.4 10.4 0 008.036-4.498c6.991-10.215 11.423-28.126 12.159-49.144.002-.065-.004-.131-.003-.196.002-.066.01-.132.01-.199V144.813c2.601-2.293 4.253-5.638 4.253-9.369V103c0-4.143-3.357-7.5-7.5-7.5s-7.5 3.357-7.5 7.5v29.943h-33.911V30.448h33.911V73c0 4.143 3.357 7.5 7.5 7.5s7.5-3.357 7.5-7.5V45.516H497V145.63c0 4.143 3.357 7.5 7.5 7.5s7.5-3.357 7.5-7.5V43.016c0-6.893-5.607-12.5-12.5-12.5zm-34.952 395.211h-8.776c-4.151-7.428-7.116-20.086-8.077-34.455h24.929c-.962 14.369-3.926 27.029-8.076 34.455zm-17.092-277.784h25.405V376.27h-25.405V147.943zM402.556 14.887H21.184C9.503 14.887 0 24.302 0 35.875v398.021c0 11.573 9.503 20.988 21.184 20.988h8.688v28.689c0 4.908 2.729 9.364 7.122 11.631a13.386 13.386 0 006.112 1.48c2.657 0 5.223-.779 7.412-2.249L67.887 482.8l19.797 12.309a13.348 13.348 0 0013.341.418c4.272-2.294 6.927-6.71 6.927-11.524v-29.118h288.165c7.907 0 14.341-6.39 14.341-14.244V249.676c2.805-2.294 4.599-5.778 4.599-9.676V27.387c-.001-6.893-5.609-12.5-12.501-12.5zM92.951 480.722l-21.256-13.216a7.492 7.492 0 00-8.134.138l-18.69 12.521v-25.279h48.08v25.836zm249.088-40.837H67.09V372c0-4.143-3.357-7.5-7.5-7.5s-7.5 3.357-7.5 7.5v67.885H21.184c-3.409 0-6.184-2.687-6.184-5.988V35.875c0-3.302 2.774-5.988 6.184-5.988H52.09V343c0 4.143 3.357 7.5 7.5 7.5s7.5-3.357 7.5-7.5V29.887h274.949v409.998zm53.418 0h-10.948V295c0-4.143-3.357-7.5-7.5-7.5s-7.5 3.357-7.5 7.5v144.885h-12.47V252.5h12.47V263c0 4.143 3.357 7.5 7.5 7.5s7.5-3.357 7.5-7.5v-10.5h10.948v187.385zm4.599-202.385h-43.017v-55h43.017v55zm0-70h-43.017v-58.821h43.017V167.5zm0-73.821h-43.017V29.887h43.017v63.792z"/>
  <path d="M264.721 121.777c-10.462 0-20.349 3.677-28.161 10.417-7.808-6.739-17.695-10.417-28.159-10.417-10.463 0-20.351 3.678-28.161 10.417-7.808-6.738-17.696-10.417-28.16-10.417-23.645 0-42.88 19.009-42.88 42.374 0 21.91 17.221 40.224 38.99 42.189v63.86c0 4.143 3.357 7.5 7.5 7.5h105.42c4.143 0 7.5-3.357 7.5-7.5v-63.86c21.767-1.964 38.99-20.278 38.99-42.189 0-23.365-19.236-42.374-42.879-42.374zm.517 69.734c-6.412.108-11.629 5.389-11.629 11.771v59.42h-20.621V227.78c0-4.143-3.357-7.5-7.5-7.5s-7.5 3.357-7.5 7.5v34.922H198.81V227.78c0-4.143-3.357-7.5-7.5-7.5s-7.5 3.357-7.5 7.5v34.922h-20.621v-59.42c0-6.382-5.216-11.662-11.623-11.771-15.09-.266-27.367-12.539-27.367-27.359 0-15.094 12.507-27.374 27.88-27.374 7.495 0 14.53 2.882 19.802 8.107a11.774 11.774 0 008.358 3.44c3.155 0 6.123-1.221 8.352-3.434 5.278-5.231 12.313-8.113 19.81-8.113 7.495 0 14.529 2.882 19.801 8.107 2.231 2.219 5.2 3.44 8.358 3.44s6.127-1.222 8.352-3.434c5.278-5.231 12.313-8.113 19.81-8.113 15.372 0 27.879 12.28 27.879 27.374-.001 14.82-12.278 27.093-27.363 27.359zM270.353 333.964c0-4.143-3.357-7.5-7.5-7.5H153.947c-4.143 0-7.5 3.357-7.5 7.5s3.357 7.5 7.5 7.5h108.905a7.5 7.5 0 007.501-7.5zM171.91 360.503a7.499 7.499 0 00-7.5 7.5 7.5 7.5 0 007.5 7.5h72.979a7.5 7.5 0 007.5-7.5c0-4.143-3.357-7.5-7.5-7.5H171.91zM460.159 235.656a7.499 7.499 0 00-7.5 7.5v70.622c0 4.143 3.357 7.5 7.5 7.5s7.5-3.357 7.5-7.5v-70.622a7.5 7.5 0 00-7.5-7.5zM460.159 200.69a7.499 7.499 0 00-7.5 7.5v7.581c0 4.143 3.357 7.5 7.5 7.5s7.5-3.357 7.5-7.5v-7.581a7.5 7.5 0 00-7.5-7.5z"/>
</svg>