<?xml version="1.0" encoding="iso-8859-1"?>
<!-- Generator: Adobe Illustrator 19.0.0, SVG Export Plug-In . SVG Version: 6.00 Build 0)  -->
<svg version="1.1" id="Capa_1" xmlns="http://www.w3.org/2000/svg" xmlns:xlink="http://www.w3.org/1999/xlink" x="0px" y="0px"
	 viewBox="0 0 512 512" style="enable-background:new 0 0 512 512;" xml:space="preserve">
<path style="fill:#FF3D6C;" d="M37.371,447.385v36.189c0,2.082,1.178,3.994,3.06,4.965c0.841,0.434,1.758,0.646,2.675,0.646
	c1.137,0,2.27-0.33,3.238-0.98l21.392-14.33l23.907,14.864c0.937,0.582,2.002,0.874,3.076,0.874c0.947,0,1.898-0.23,2.758-0.693
	c1.837-0.986,2.975-2.87,2.975-4.917v-36.618H37.371z"/>
<path style="fill:#B2B4CE;" d="M402.556,245h-53.017v195.641c0,3.258-2.374,5.993-5.5,6.611v0.133h52.077
	c3.763,0,6.841-3.034,6.841-6.744V244.959C402.822,244.971,402.693,245,402.556,245z"/>
<path style="fill:#CFCFD9;" d="M349.539,245v195.641c0,3.258-2.374,5.993-5.5,6.611v0.133h26.128c3.763,0,6.842-3.034,6.842-6.744
	V245H349.539z"/>
<path style="fill:#FFCB00;" d="M402.556,175h-53.017v70h53.017c2.75,0,5-2.25,5-5v-68.792c0-0.207-0.036-0.403-0.062-0.604
	C407.19,173.068,405.099,175,402.556,175z"/>
<path style="fill:#FF5E97;" d="M402.556,101.179h-53.017V175h53.017c2.75,0,5-2.25,5-5v-68.791c0-0.92-0.269-1.772-0.707-2.516
	C405.978,100.171,404.386,101.179,402.556,101.179z"/>
<path style="fill:#F6B245;" d="M342.698,22.387H21.184c-7.525,0-13.684,6.068-13.684,13.488v398.022
	c0,7.42,6.158,13.488,13.684,13.488h321.515c3.763,0,6.841-3.034,6.841-6.744V29.131C349.539,25.421,346.461,22.387,342.698,22.387z
	"/>
<path style="fill:#82DDAB;" d="M402.556,22.387h-53.517c-1.076,0-2.069,0.353-2.887,0.937c2.02,1.176,3.387,3.339,3.387,5.808
	v72.048h53.017c2.75,0,5-2.25,5-5V27.387C407.556,24.637,405.306,22.387,402.556,22.387z"/>
<path style="opacity:0.1;enable-background:new    ;" d="M366,96.179V27.387c0-2.75,2.25-5,5-5h-21.961
	c-1.076,0-2.069,0.353-2.887,0.937c2.02,1.176,3.387,3.339,3.387,5.808v72.048H371C368.25,101.179,366,98.929,366,96.179z"/>
<path style="opacity:0.1;enable-background:new    ;" d="M366,170v-68.792c0-0.01,0.003-0.02,0.003-0.029h-16.464V175H371
	C368.25,175,366,172.75,366,170z"/>
<path style="opacity:0.1;enable-background:new    ;" d="M366,240v-65h-16.461v70H371C368.25,245,366,242.75,366,240z"/>
<path style="fill:#F39600;" d="M59.59,22.387H21.184c-7.525,0-13.684,6.068-13.684,13.488v398.022
	c0,7.42,6.158,13.488,13.684,13.488H59.59V22.387z"/>
<path style="fill:#FFFFFF;" d="M155.689,270.201v-66.92c0-2.33-1.893-4.231-4.255-4.271c-19.153-0.338-34.735-15.973-34.735-34.858
	c0-19.229,15.871-34.874,35.38-34.874c9.486,0,18.395,3.652,25.089,10.287c0.812,0.807,1.918,1.26,3.071,1.26
	s2.259-0.453,3.071-1.26c6.693-6.635,15.604-10.287,25.09-10.287c9.484,0,18.395,3.652,25.088,10.287
	c0.812,0.807,1.918,1.26,3.071,1.26c1.154,0,2.26-0.453,3.071-1.26c6.693-6.635,15.602-10.287,25.09-10.287
	c19.509,0,35.379,15.645,35.379,34.874c0,18.886-15.581,34.521-34.734,34.858c-2.362,0.04-4.256,1.941-4.256,4.271v66.92H155.689z"
	/>
<path style="fill:#F6B142;" d="M479.614,140.443h-38.911c-0.256,0-0.502-0.038-0.747-0.076v246.287h40.405V140.367
	C480.115,140.405,479.87,140.443,479.614,140.443z"/>
<g>
	<path style="fill:#299FBC;" d="M484.614,135.443c0,2.75-2.25,5-5,5h-38.911c-2.75,0-5-2.25-5-5V27.948c0-2.75,2.25-5,5-5h38.911
		c2.75,0,5,2.25,5,5V135.443z"/>
	<path style="fill:#299FBC;" d="M439.967,386.654c0,0.046-0.011,0.091-0.009,0.137c0.678,19.34,4.735,36.225,10.854,45.166
		c0.543,0.793,1.441,1.269,2.402,1.269h13.888c0.961,0,1.859-0.475,2.403-1.269c6.119-8.94,10.176-25.825,10.854-45.166
		c0.002-0.046-0.009-0.091-0.009-0.137L439.967,386.654L439.967,386.654z"/>
</g>
<path d="M499.5,30.516h-7.386v-2.567c0-6.892-5.607-12.5-12.5-12.5h-38.911c-6.893,0-12.5,5.608-12.5,12.5v107.495
	c0,3.731,1.652,7.076,4.253,9.369v241.842c0,0.066,0.009,0.131,0.01,0.197c0.001,0.067-0.005,0.135-0.003,0.202
	c0.736,21.012,5.168,38.923,12.161,49.141c1.838,2.683,4.811,4.324,8.035,4.497v10.488c0,4.143,3.357,7.5,7.5,7.5s7.5-3.357,7.5-7.5
	v-10.488c3.222-0.173,6.197-1.814,8.036-4.498c6.991-10.215,11.423-28.126,12.159-49.144c0.002-0.065-0.004-0.131-0.003-0.196
	c0.002-0.066,0.01-0.132,0.01-0.199V144.813c2.601-2.293,4.253-5.638,4.253-9.369V103c0-4.143-3.357-7.5-7.5-7.5s-7.5,3.357-7.5,7.5
	v29.943h-33.911V30.448h33.911V73c0,4.143,3.357,7.5,7.5,7.5s7.5-3.357,7.5-7.5V45.516H497V145.63c0,4.143,3.357,7.5,7.5,7.5
	s7.5-3.357,7.5-7.5V43.016C512,36.123,506.393,30.516,499.5,30.516z M464.548,425.727h-8.776
	c-4.151-7.428-7.116-20.086-8.077-34.455h24.929C471.662,405.641,468.698,418.301,464.548,425.727z M447.456,147.943h25.405V376.27
	h-25.405V147.943z"/>
<path d="M402.556,14.887H21.184C9.503,14.887,0,24.302,0,35.875v398.021c0,11.573,9.503,20.988,21.184,20.988h8.688v28.689
	c0,4.908,2.729,9.364,7.122,11.631c1.878,0.969,3.992,1.48,6.112,1.48c2.657,0,5.223-0.779,7.412-2.249L67.887,482.8l19.797,12.309
	c2.109,1.311,4.542,2.004,7.035,2.004c2.199,0,4.383-0.55,6.306-1.586c4.272-2.294,6.927-6.71,6.927-11.524v-29.118h288.165
	c7.907,0,14.341-6.39,14.341-14.244V249.676c2.805-2.294,4.599-5.778,4.599-9.676V27.387
	C415.056,20.494,409.448,14.887,402.556,14.887z M92.951,480.722l-21.256-13.216c-1.214-0.755-2.587-1.131-3.96-1.131
	c-1.457,0-2.913,0.424-4.174,1.269l-18.69,12.521v-25.279h48.08V480.722z M342.039,439.885H67.09V372c0-4.143-3.357-7.5-7.5-7.5
	s-7.5,3.357-7.5,7.5v67.885H21.184c-3.409,0-6.184-2.687-6.184-5.988V35.875c0-3.302,2.774-5.988,6.184-5.988H52.09V343
	c0,4.143,3.357,7.5,7.5,7.5s7.5-3.357,7.5-7.5V29.887h274.949V439.885z M395.457,439.885h-10.948V295c0-4.143-3.357-7.5-7.5-7.5
	s-7.5,3.357-7.5,7.5v144.885h-12.47V252.5h12.47V263c0,4.143,3.357,7.5,7.5,7.5s7.5-3.357,7.5-7.5v-10.5h10.948V439.885z
	 M400.056,237.5h-43.017v-55h43.017V237.5z M400.056,167.5h-43.017v-58.821h43.017V167.5z M400.056,93.679h-43.017V29.887h43.017
	V93.679z"/>
<path d="M264.721,121.777c-10.462,0-20.349,3.677-28.161,10.417c-7.808-6.739-17.695-10.417-28.159-10.417
	c-10.463,0-20.351,3.678-28.161,10.417c-7.808-6.738-17.696-10.417-28.16-10.417c-23.645,0-42.88,19.009-42.88,42.374
	c0,21.91,17.221,40.224,38.99,42.189v63.86c0,4.143,3.357,7.5,7.5,7.5h105.42c4.143,0,7.5-3.357,7.5-7.5v-63.86
	c21.767-1.964,38.99-20.278,38.99-42.189C307.6,140.786,288.364,121.777,264.721,121.777z M265.238,191.511
	c-6.412,0.108-11.629,5.389-11.629,11.771v59.42h-20.621V227.78c0-4.143-3.357-7.5-7.5-7.5s-7.5,3.357-7.5,7.5v34.922H198.81V227.78
	c0-4.143-3.357-7.5-7.5-7.5s-7.5,3.357-7.5,7.5v34.922h-20.621v-59.42c0-6.382-5.216-11.662-11.623-11.771
	c-15.09-0.266-27.367-12.539-27.367-27.359c0-15.094,12.507-27.374,27.88-27.374c7.495,0,14.53,2.882,19.802,8.107
	c2.231,2.219,5.2,3.44,8.358,3.44c3.155,0,6.123-1.221,8.352-3.434c5.278-5.231,12.313-8.113,19.81-8.113
	c7.495,0,14.529,2.882,19.801,8.107c2.231,2.219,5.2,3.44,8.358,3.44s6.127-1.222,8.352-3.434c5.278-5.231,12.313-8.113,19.81-8.113
	c15.372,0,27.879,12.28,27.879,27.374C292.6,178.972,280.323,191.245,265.238,191.511z"/>
<path d="M270.353,333.964c0-4.143-3.357-7.5-7.5-7.5H153.947c-4.143,0-7.5,3.357-7.5,7.5s3.357,7.5,7.5,7.5h108.905
	C266.995,341.464,270.353,338.106,270.353,333.964z"/>
<path d="M171.91,360.503c-4.143,0-7.5,3.357-7.5,7.5c0,4.142,3.357,7.5,7.5,7.5h72.979c4.143,0,7.5-3.358,7.5-7.5
	c0-4.143-3.357-7.5-7.5-7.5H171.91z"/>
<path d="M460.159,235.656c-4.143,0-7.5,3.357-7.5,7.5v70.622c0,4.143,3.357,7.5,7.5,7.5s7.5-3.357,7.5-7.5v-70.622
	C467.659,239.014,464.302,235.656,460.159,235.656z"/>
<path d="M460.159,200.69c-4.143,0-7.5,3.357-7.5,7.5v7.581c0,4.143,3.357,7.5,7.5,7.5s7.5-3.357,7.5-7.5v-7.581
	C467.659,204.048,464.302,200.69,460.159,200.69z"/>
<g>
</g>
<g>
</g>
<g>
</g>
<g>
</g>
<g>
</g>
<g>
</g>
<g>
</g>
<g>
</g>
<g>
</g>
<g>
</g>
<g>
</g>
<g>
</g>
<g>
</g>
<g>
</g>
<g>
</g>
</svg>
