<svg viewBox="0 0 512.068 512.068" xmlns="http://www.w3.org/2000/svg">
  <path d="M467.271 111.437c-3.127-4.554-9.351-5.711-13.904-2.586-4.554 3.126-5.711 9.351-2.586 13.904 64.214 93.553 52.479 219.784-27.902 300.15-92.016 91.999-241.738 92.001-333.756 0C44.548 378.339 20 319.086 20 256.062c0-63.025 24.548-122.278 69.122-166.845 80.302-80.286 206.48-92.073 300.021-28.028 4.556 3.118 10.779 1.956 13.9-2.602 3.12-4.557 1.956-10.78-2.602-13.9-101.479-69.484-238.356-56.703-325.46 30.388C26.629 123.417 0 187.694 0 256.062c0 68.367 26.629 132.644 74.981 180.986C123.334 485.392 187.62 512.016 256 512.016s132.667-26.624 181.019-74.968c87.194-87.177 99.917-224.116 30.252-325.611z"/>
  <path d="M423.81 92.76c3.605 2.356 8.373 2.197 11.765-.481 3.18-2.51 4.534-6.858 3.355-10.732-1.21-3.977-4.874-6.862-9.029-7.088-4.303-.234-8.377 2.436-9.891 6.467-1.616 4.303-.028 9.28 3.8 11.834zM391.76 217.033c5.494.162 10.103-4.238 10.233-9.761.131-5.521-4.239-10.103-9.761-10.233-26.288-.644-74.219 8.295-90.817 34.875a9.998 9.998 0 0010.734 15.04c27.883-6.443 57.08 7.571 69.425 33.329a9.998 9.998 0 0013.338 4.697c4.98-2.387 7.083-8.358 4.696-13.339-7.89-16.463-21.317-29.965-37.81-38.017a81.355 81.355 0 00-21.657-7.016c16.096-6.723 36.757-9.941 51.619-9.575zM111.979 271.64c-2.387 4.98-.285 10.953 4.695 13.34a9.999 9.999 0 0013.339-4.696c12.345-25.758 41.532-39.777 69.425-33.33a10 10 0 0010.734-15.04c-16.6-26.579-64.506-35.529-90.817-34.875-5.521.131-9.892 4.712-9.761 10.233.132 5.522 4.733 9.926 10.233 9.761 14.846-.358 35.522 2.853 51.617 9.575a81.396 81.396 0 00-21.656 7.016c-16.492 8.052-29.92 21.553-37.809 38.016zM206.448 377.909c27.21-27.204 71.482-27.202 98.69 0a9.966 9.966 0 007.07 2.929c2.56 0 5.119-.977 7.071-2.93 3.905-3.905 3.904-10.237-.001-14.142-35.005-34.998-91.965-35-126.972 0-3.905 3.904-3.906 10.236-.001 14.142 3.906 3.907 10.239 3.908 14.143.001zM186.7 115.132c2.106-5.105-.324-10.952-5.429-13.06-5.105-2.106-10.951.324-13.06 5.429-1.88 4.557-9.431 11.958-21.565 17.44-11.286 5.1-22.524 6.524-29.329 3.716-5.109-2.107-10.952.324-13.059 5.43s.324 10.952 5.43 13.059c4.82 1.988 10.208 2.885 15.846 2.885 24.538 0 53.777-16.996 61.166-34.899zM394.27 128.658c-6.804 2.807-18.042 1.384-29.329-3.716-12.134-5.482-19.686-12.884-21.566-17.44-2.106-5.105-7.953-7.535-13.059-5.428s-7.535 7.954-5.428 13.059c7.391 17.905 36.628 34.898 61.166 34.898 5.636 0 11.026-.896 15.845-2.885 5.105-2.106 7.536-7.953 5.43-13.059-2.107-5.104-7.95-7.537-13.059-5.429z"/>
</svg>