<svg id="Capa_1" enable-background="new 0 0 512.068 512.068" height="512" viewBox="0 0 512.068 512.068" width="512" xmlns="http://www.w3.org/2000/svg"><g><g><path d="m467.271 111.437c-3.127-4.554-9.351-5.711-13.904-2.586-4.554 3.126-5.711 9.351-2.586 13.904 64.214 93.553 52.479 219.784-27.902 300.15-92.016 91.999-241.738 92.001-333.756 0-44.575-44.566-69.123-103.819-69.123-166.843 0-63.025 24.548-122.278 69.122-166.845 80.302-80.286 206.48-92.073 300.021-28.028 4.556 3.118 10.779 1.956 13.9-2.602 3.12-4.557 1.956-10.78-2.602-13.9-101.479-69.484-238.356-56.703-325.46 30.388-48.352 48.342-74.981 112.619-74.981 180.987 0 68.367 26.629 132.644 74.981 180.986 48.353 48.344 112.639 74.968 181.019 74.968s132.667-26.624 181.019-74.968c87.194-87.177 99.917-224.116 30.252-325.611z"/><path d="m423.81 92.76c3.605 2.356 8.373 2.197 11.765-.481 3.18-2.51 4.534-6.858 3.355-10.732-1.21-3.977-4.874-6.862-9.029-7.088-4.303-.234-8.377 2.436-9.891 6.467-1.616 4.303-.028 9.28 3.8 11.834z"/><path d="m391.76 217.033c5.494.162 10.103-4.238 10.233-9.761.131-5.521-4.239-10.103-9.761-10.233-26.288-.644-74.219 8.295-90.817 34.875-2.143 3.431-2.008 7.814.342 11.106 2.351 3.292 6.452 4.84 10.392 3.934 27.883-6.443 57.08 7.571 69.425 33.329 1.719 3.587 5.296 5.682 9.024 5.681 1.449 0 2.921-.316 4.314-.984 4.98-2.387 7.083-8.358 4.696-13.339-7.89-16.463-21.317-29.965-37.81-38.017-6.88-3.359-14.181-5.707-21.657-7.016 16.096-6.723 36.757-9.941 51.619-9.575z"/><path d="m111.979 271.64c-2.387 4.98-.285 10.953 4.695 13.34 1.395.668 2.866.984 4.315.984 3.728 0 7.306-2.094 9.024-5.68 12.345-25.758 41.532-39.777 69.425-33.33 3.938.908 8.043-.642 10.392-3.934 2.35-3.292 2.484-7.676.342-11.106-16.6-26.579-64.506-35.529-90.817-34.875-5.521.131-9.892 4.712-9.761 10.233.132 5.522 4.733 9.926 10.233 9.761 14.846-.358 35.522 2.853 51.617 9.575-7.475 1.31-14.776 3.657-21.656 7.016-16.492 8.052-29.92 21.553-37.809 38.016z"/><path d="m206.448 377.909c27.21-27.204 71.482-27.202 98.69 0 1.952 1.953 4.512 2.929 7.07 2.929 2.56 0 5.119-.977 7.071-2.93 3.905-3.905 3.904-10.237-.001-14.142-35.005-34.998-91.965-35-126.972 0-3.905 3.904-3.906 10.236-.001 14.142 3.906 3.907 10.239 3.908 14.143.001z"/><path d="m186.7 115.132c2.106-5.105-.324-10.952-5.429-13.06-5.105-2.106-10.951.324-13.06 5.429-1.88 4.557-9.431 11.958-21.565 17.44-11.286 5.1-22.524 6.524-29.329 3.716-5.109-2.107-10.952.324-13.059 5.43s.324 10.952 5.43 13.059c4.82 1.988 10.208 2.885 15.846 2.885 24.538 0 53.777-16.996 61.166-34.899z"/><path d="m394.27 128.658c-6.804 2.807-18.042 1.384-29.329-3.716-12.134-5.482-19.686-12.884-21.566-17.44-2.106-5.105-7.953-7.535-13.059-5.428s-7.535 7.954-5.428 13.059c7.391 17.905 36.628 34.898 61.166 34.898 5.636 0 11.026-.896 15.845-2.885 5.105-2.106 7.536-7.953 5.43-13.059-2.107-5.104-7.95-7.537-13.059-5.429z"/></g></g></svg>