<svg viewBox="0 0 461.516 461.516" xmlns="http://www.w3.org/2000/svg">
  <path d="M185.746 371.332a185.294 185.294 0 00113.866-39.11L422.39 455c9.172 8.858 23.787 8.604 32.645-.568 8.641-8.947 8.641-23.131 0-32.077L332.257 299.577c62.899-80.968 48.252-197.595-32.716-260.494S101.947-9.169 39.048 71.799-9.204 269.394 71.764 332.293a185.64 185.64 0 00113.982 39.039zM87.095 87.059c54.484-54.485 142.82-54.486 197.305-.002s54.486 142.82.002 197.305-142.82 54.486-197.305.002l-.002-.002c-54.484-54.087-54.805-142.101-.718-196.585l.718-.718z"/>
</svg>