<?xml version="1.0" encoding="iso-8859-1"?>
<!-- Generator: Adobe Illustrator 19.0.0, SVG Export Plug-In . SVG Version: 6.00 Build 0)  -->
<svg version="1.1" id="Capa_1" xmlns="http://www.w3.org/2000/svg" xmlns:xlink="http://www.w3.org/1999/xlink" x="0px" y="0px"
	 viewBox="0 0 512.001 512.001" style="enable-background:new 0 0 512.001 512.001;" xml:space="preserve">
<path style="fill:#C6271A;" d="M475.64,394.262c-0.098-0.141-0.19-0.284-0.281-0.429L280.82,85.507
	c-11.531-18.27-38.154-18.24-49.667,0.001L35.779,395.159c-12.315,19.52,1.745,45.031,24.833,45.031h390.781
	C474.993,440.19,488.891,413.632,475.64,394.262z"/>
<path style="fill:#AF221B;" d="M58.318,425.01c-5.165-9.367-4.829-20.805,0.878-29.851l195.375-309.65
	c3.217-5.097,7.807-8.96,13.125-11.266c-13.026-5.647-28.62-1.288-36.543,11.266L35.779,395.159
	c-12.315,19.52,1.745,45.031,24.833,45.031H84.03C73.335,440.19,63.483,434.373,58.318,425.01z"/>
<path style="fill:#F74C48;" d="M451.392,471.369H60.611c-47.586,0-76.6-52.588-51.202-92.848l195.377-309.65
	c23.768-37.663,78.666-37.621,102.402-0.002l194.387,308.082C528.672,417.032,499.781,471.369,451.392,471.369z M233.326,86.88
	L37.952,396.53c-11.237,17.812,1.592,41.091,22.66,41.091h390.781c21.518,0,34.227-24.218,22.137-41.894
	c-0.119-0.172-0.232-0.346-0.343-0.523L278.647,86.879C268.125,70.208,243.832,70.233,233.326,86.88z"/>
<path style="fill:#D63322;" d="M29.965,378.522L225.341,68.871c9.298-14.733,24.139-24.512,40.923-27.366
	c-24.016-4.08-48.194,6.315-61.478,27.366L9.409,378.522c-25.39,40.247,3.6,92.848,51.202,92.848h20.555
	C33.581,471.369,4.567,418.781,29.965,378.522z"/>
<g>
	<path style="fill:#F2F2F2;" d="M256.001,185.261c-9.317,0-16.874,7.555-16.874,16.874v97.987c0,9.319,7.557,16.874,16.874,16.874
		c9.321,0,16.875-7.555,16.875-16.874v-97.987C272.876,192.816,265.322,185.261,256.001,185.261z"/>
	<circle style="fill:#F2F2F2;" cx="256" cy="365.23" r="16.874"/>
</g>
<g>
</g>
<g>
</g>
<g>
</g>
<g>
</g>
<g>
</g>
<g>
</g>
<g>
</g>
<g>
</g>
<g>
</g>
<g>
</g>
<g>
</g>
<g>
</g>
<g>
</g>
<g>
</g>
<g>
</g>
</svg>
